<?xml version="1.0"?>
<svg width="1024" height="1024" xmlns="http://www.w3.org/2000/svg" xmlns:svg="http://www.w3.org/2000/svg">
 <g class="layer">
  <title>Layer 1</title>
  <rect fill="white" height="100%" id="svg_1" width="100%"/>
  <circle cx="512" cy="512" fill="none" id="svg_2" r="504" stroke="black" stroke-width="16"/>
  <path d="m882.76,295.62l-102.92,1.24l-117.8,158.72l-2.48,-173.6l-167.4,184.76l-95.48,-102.92l48.36,-68.2l-100.44,0l-119.04,159.96l-1.24,-158.72l-81.84,-1.24l-1.24,446.4l83.08,0l1.24,-152.52l114.08,152.52l102.92,0l-39.68,-54.56l1.24,-193.44l86.8,94.24l83.08,-91.76l3.72,-1.24l0,246.76l83.08,0l1.24,-153.76l114.08,153.76l104.16,0l-163.68,-220.72l166.16,-225.68zm-37.2,18.6l-151.28,207.08l148.8,202.12l-55.8,1.24l-136.4,-182.28l-8.68,0l0,179.8l-7.44,2.48l-37.2,-1.24l0,-150.04l190.96,-257.92l57.04,-1.24zm-437.72,0l0,3.72l-150.04,202.12l2.48,7.44l145.08,195.92l-55.8,1.24l-136.4,-182.28l-7.44,0l0,179.8l-7.44,2.48l-37.2,-1.24l-1.24,-148.8l193.44,-260.4l54.56,0zm233.12,14.88l1.24,153.76l-44.64,60.76l-1.24,-97.96l-104.16,115.32l-107.88,-115.32l-1.24,215.76l-43.4,-58.28l0,-163.68l45.88,-60.76l106.64,115.32l148.8,-164.92zm-436.48,-14.88l1.24,168.64l-44.64,59.52l-1.24,-226.92l44.64,-1.24zm115.32,152.52l0,109.12l-39.68,-53.32l39.68,-55.8z" fill="black" fill-rule="evenodd" id="svg_3"/>
 </g>

</svg>